<svg width="662" height="570" viewBox="0 0 662 570" fill="none" xmlns="http://www.w3.org/2000/svg">
<g clip-path="url(#clip0)">
<path opacity="0.4" d="M558.723 219.143C567.484 219.143 574.585 211.007 574.585 200.971C574.585 190.935 567.484 182.799 558.723 182.799C549.962 182.799 542.861 190.935 542.861 200.971C542.861 211.007 549.962 219.143 558.723 219.143Z" fill="#6C63FF"/>
<path opacity="0.4" d="M224.279 119.168C236.767 119.168 246.891 107.57 246.891 93.2635C246.891 78.9568 236.767 67.3589 224.279 67.3589C211.79 67.3589 201.666 78.9568 201.666 93.2635C201.666 107.57 211.79 119.168 224.279 119.168Z" fill="#6C63FF"/>
<path opacity="0.4" d="M182.429 123.808C191.189 123.808 198.291 115.672 198.291 105.636C198.291 95.5997 191.189 87.4639 182.429 87.4639C173.668 87.4639 166.566 95.5997 166.566 105.636C166.566 115.672 173.668 123.808 182.429 123.808Z" fill="#6C63FF"/>
<path d="M572.008 404.179C559.475 419.899 559.02 442.798 559.02 442.798C559.02 442.798 578.885 440.21 591.419 424.49C603.952 408.77 604.407 385.871 604.407 385.871C604.407 385.871 584.542 388.459 572.008 404.179Z" fill="#3F3D56"/>
<path d="M579.088 408.702C575.295 429.544 559.353 443.367 559.353 443.367C559.353 443.367 549.56 423.398 553.352 402.556C557.145 381.714 573.087 367.891 573.087 367.891C573.087 367.891 582.881 387.86 579.088 408.702Z" fill="#6C63FF"/>
<path d="M562.81 193.639V442.097L490.516 510.514H120.664V250.052L228.581 193.639H562.81Z" fill="#3F3D56"/>
<path opacity="0.1" d="M562.81 193.639V194.634L536.857 214.535L490.516 250.052H120.664L228.581 193.639H562.81Z" fill="black"/>
<path opacity="0.1" d="M562.81 193.639V442.097L490.516 510.514L491.04 249.452L536.857 214.535L562.391 193.639H562.81Z" fill="black"/>
<path d="M465.37 227.847H240.107L256.87 217.044H472.705L465.37 227.847Z" fill="#2F2E41"/>
<path d="M659.788 524.027C659.788 524.027 664.156 544.949 660.186 545.858C656.216 546.768 636.762 546.474 631.998 547.384C627.234 548.293 617.309 546.768 617.309 542.675C617.309 538.581 627.631 535.852 627.631 535.852C627.631 535.852 642.32 526.756 642.717 526.302C643.114 525.847 659.788 524.027 659.788 524.027Z" fill="#2F2E41"/>
<path d="M656.215 400.776C656.215 400.776 655.024 416.239 655.024 417.604C655.024 418.968 656.215 440.344 655.024 441.253C653.833 442.163 655.818 448.53 655.818 450.804C655.818 453.078 662.17 490.827 660.582 505.381C658.994 519.934 662.964 518.57 661.773 519.934C660.582 521.299 660.582 521.299 660.582 524.027C660.582 526.756 647.878 529.03 647.878 529.03L633.983 428.519L641.129 398.502L656.215 400.776Z" fill="#575A89"/>
<path opacity="0.1" d="M656.215 400.776C656.215 400.776 655.024 416.239 655.024 417.604C655.024 418.968 656.215 440.344 655.024 441.253C653.833 442.163 655.818 448.53 655.818 450.804C655.818 453.078 662.17 490.827 660.582 505.381C658.994 519.934 662.964 518.57 661.773 519.934C660.582 521.299 660.582 521.299 660.582 524.027C660.582 526.756 647.878 529.03 647.878 529.03L633.983 428.519L641.129 398.502L656.215 400.776Z" fill="black"/>
<path d="M654.23 530.395C654.23 530.395 658.2 546.768 654.23 547.677C650.26 548.587 630.807 546.635 626.043 547.545C621.279 548.455 611.354 548.587 611.354 544.494C611.354 540.4 621.676 537.672 621.676 537.672C621.676 537.672 636.365 528.576 636.762 528.121C637.159 527.666 654.23 530.395 654.23 530.395Z" fill="#2F2E41"/>
<path d="M659.788 382.584C659.788 382.584 664.552 395.773 658.994 402.595C653.436 409.417 647.084 423.061 647.084 423.971C647.084 424.881 658.2 515.386 656.612 521.299C655.024 527.211 655.421 530.85 655.818 531.759C656.215 532.669 651.848 537.672 647.084 537.672C642.32 537.672 635.174 533.578 634.38 529.94C633.586 526.301 635.571 494.92 635.174 489.008C634.777 483.095 632.792 474.454 631.998 472.635C631.204 470.816 626.837 468.996 626.043 463.539C625.249 458.081 618.897 388.496 620.882 386.222C622.867 383.948 659.788 382.584 659.788 382.584Z" fill="#575A89"/>
<path d="M629.616 277.979C637.071 277.979 643.114 271.056 643.114 262.516C643.114 253.976 637.071 247.053 629.616 247.053C622.161 247.053 616.118 253.976 616.118 262.516C616.118 271.056 622.161 277.979 629.616 277.979Z" fill="#FFB9B9"/>
<path d="M637.953 270.248C637.953 270.248 635.174 287.075 637.159 288.894C639.144 290.714 622.073 293.442 622.073 293.442C622.073 293.442 620.088 271.157 619.691 268.883C619.294 266.609 637.953 270.248 637.953 270.248Z" fill="#FFB9B9"/>
<path d="M619.691 292.078C619.691 292.078 624.455 276.16 643.908 280.708C643.908 280.708 647.481 282.072 646.29 283.437C645.099 284.801 643.908 284.801 645.496 286.166C647.084 287.53 649.069 286.166 647.878 287.53C646.687 288.894 658.597 297.081 657.803 312.544C657.009 328.007 660.582 349.838 657.803 353.476C655.024 357.115 659.788 373.033 658.994 376.217C658.2 379.4 663.758 383.493 661.376 384.858C658.994 386.222 616.118 394.409 614.927 384.858C613.736 375.307 614.53 382.129 613.339 379.855C612.148 377.581 611.751 373.488 612.545 368.485C613.339 363.482 615.324 351.202 614.53 346.654C613.736 342.106 614.53 303.903 616.912 299.355C619.294 294.807 619.691 292.078 619.691 292.078Z" fill="#6C63FF"/>
<path d="M628.028 403.05C628.028 403.05 633.984 428.974 626.44 428.974C618.897 428.974 619.294 402.14 619.294 402.14L628.028 403.05Z" fill="#FFB9B9"/>
<path d="M623.661 262.516C623.661 263.835 625.329 264.672 627.913 264.863H627.917C629.013 264.934 630.112 264.91 631.204 264.79C632.856 264.617 633.539 266.395 633.82 268.742C634.281 272.612 633.638 278.038 634.38 278.889C635.404 280.062 642.872 278.884 645.206 276.224C645.57 275.85 645.812 275.347 645.893 274.796C646.138 273.171 646.838 271.682 647.886 270.552C649.264 268.829 651.225 266.918 653.436 263.88C657.406 258.423 653.436 257.968 652.245 253.875C651.054 249.781 649.069 248.417 649.069 245.688C649.069 242.959 639.938 240.685 632.395 241.14C624.852 241.595 626.44 252.51 626.44 252.51C626.44 252.51 625.992 253.829 625.456 255.53C624.731 257.665 624.141 259.856 623.693 262.088C623.674 262.23 623.664 262.373 623.661 262.516V262.516Z" fill="#2F2E41"/>
<path opacity="0.1" d="M625.249 298.9C625.249 298.9 638.747 297.99 639.938 320.731C641.129 343.471 640.732 364.846 640.732 365.301C640.732 365.756 635.174 408.962 630.013 408.962C624.852 408.962 620.882 408.053 619.691 405.779C618.5 403.505 622.867 370.759 622.867 370.759C622.867 370.759 624.852 336.194 621.676 325.279C618.5 314.363 618.103 300.265 625.249 298.9Z" fill="black"/>
<path d="M623.264 296.626C623.264 296.626 636.762 295.716 637.953 318.457C639.144 341.197 638.747 362.573 638.747 363.027C638.747 363.482 633.189 406.688 628.028 406.688C622.867 406.688 618.897 405.779 617.706 403.505C616.515 401.231 620.882 368.485 620.882 368.485C620.882 368.485 622.867 333.92 619.691 323.005C616.515 312.089 616.118 297.99 623.264 296.626Z" fill="#6C63FF"/>
<path d="M399.437 74.3127C399.437 74.3127 393.554 55.2189 389.306 61.2091C385.057 67.1993 395.842 77.3078 395.842 77.3078L399.437 74.3127Z" fill="#A0616A"/>
<path d="M427.216 55.5933L423.677 57.0957C423.677 57.0957 421.987 65.7018 422.64 67.1993C423.294 68.6969 423.621 67.5737 422.64 70.5688C421.66 73.5639 418.719 81.4261 418.392 82.5492C418.065 83.6724 399.437 75.4359 399.437 71.3176C399.437 71.3176 395.515 76.559 393.555 77.6822C393.555 77.6822 415.124 95.6528 418.065 97.8991C421.006 100.145 422.64 99.0223 425.255 96.4016C427.869 93.7809 438.981 72.0664 438.981 72.0664L427.216 55.5933Z" fill="#575A89"/>
<path d="M417.738 188.501C417.738 188.501 418.065 192.619 418.719 192.994C419.372 193.368 424.274 202.728 418.719 204.6C413.163 206.472 409.895 205.723 408.588 206.472C407.28 207.221 384.404 208.718 384.077 204.6C383.75 200.482 395.188 199.733 395.188 199.733C395.188 199.733 405.646 191.871 407.28 187.752C408.914 183.634 417.738 188.501 417.738 188.501Z" fill="#2F2E41"/>
<path d="M484.08 195.989C484.08 195.989 491.923 211.339 489.962 213.211C488.002 215.083 468.905 221.905 466.106 222.196C462.511 222.57 459.896 219.201 462.837 217.329C465.779 215.457 471.988 207.595 471.988 204.974V198.235L484.08 195.989Z" fill="#2F2E41"/>
<path d="M491.597 95.6528C491.597 95.6528 498.46 105.387 487.675 121.111L469.7 147.318C469.7 147.318 480.812 167.535 481.139 178.018C481.466 188.501 483.753 186.255 484.407 190.747C485.06 195.24 488.002 192.994 485.714 196.363C483.426 199.733 474.929 202.728 472.315 200.107C471.416 199.165 470.713 198.002 470.261 196.706C469.808 195.409 469.617 194.012 469.7 192.619C469.7 191.122 465.125 182.511 464.798 179.89C464.472 177.269 452.38 155.929 452.38 155.929C452.38 155.929 448.458 143.2 453.033 136.087C457.609 128.973 460.632 118.885 460.632 118.885C460.632 118.885 447.151 137.584 437.673 142.077C437.673 142.077 434.079 142.826 434.732 144.698C435.386 146.57 434.732 147.693 433.752 149.565C432.771 151.437 425.908 173.151 423.621 178.767C421.333 184.383 422.314 187.752 419.699 189.624C417.085 191.496 405.32 189.999 405.32 188.127C405.32 186.255 406.954 181.388 407.934 178.767C408.914 176.146 416.758 145.821 416.104 140.579C415.451 135.338 416.431 128.225 421.333 125.229C426.235 122.234 451.073 97.8992 452.38 97.8992C453.687 97.8992 491.597 95.6528 491.597 95.6528Z" fill="#2F2E41"/>
<path d="M425.909 36.8739C433.489 36.8739 439.634 29.8339 439.634 21.1496C439.634 12.4653 433.489 5.42531 425.909 5.42531C418.328 5.42531 412.183 12.4653 412.183 21.1496C412.183 29.8339 418.328 36.8739 425.909 36.8739Z" fill="#A0616A"/>
<path d="M437.02 22.6471C437.02 22.6471 441.268 31.2581 446.497 32.3813C451.726 33.5045 432.771 50.7263 432.771 50.7263C432.771 50.7263 428.196 34.2532 424.274 33.5044C420.353 32.7557 437.02 22.6471 437.02 22.6471Z" fill="#A0616A"/>
<path d="M423.621 57.8397C423.621 62.7067 436.366 76.5591 436.366 76.5591L448.458 88.1651C448.458 88.1651 448.785 92.2833 450.092 92.6577C451.399 93.0321 453.033 93.0321 451.726 95.2785C450.419 97.5248 447.151 102.392 450.092 103.141C450.979 103.295 451.872 103.393 452.768 103.433C453.553 103.485 454.474 103.534 455.51 103.579C457.929 103.676 460.955 103.74 464.233 103.713C465.164 103.71 466.112 103.697 467.076 103.676C479.433 103.395 493.747 101.767 492.577 96.4016C490.616 87.4163 491.923 84.4212 487.675 79.5542C483.426 74.6871 476.563 57.8396 476.563 57.8396C476.563 57.8396 462.837 31.2581 451.399 31.2581L449.023 30.543C447.919 30.2098 446.752 30.2829 445.686 30.7519C444.62 31.2209 443.711 32.062 443.085 33.1562C440.791 37.1584 437.173 43.1711 435.059 45.1104C431.791 48.1055 431.281 45.9565 431.281 45.9565C431.281 45.9565 423.621 52.9726 423.621 57.8397Z" fill="#575A89"/>
<path d="M452.707 114.747C452.707 114.747 443.229 131.594 449.112 134.589C454.994 137.584 458.262 116.993 458.262 116.993L452.707 114.747Z" fill="#A0616A"/>
<path d="M434.882 19.3735C434.355 19.2974 434.188 18.5359 434.1 17.9362C433.625 14.7246 431.536 11.6791 428.728 11.1607C427.655 10.9972 426.564 11.0979 425.528 11.4562C424.044 11.9228 422.65 12.7086 421.422 13.7716C420.821 14.4009 420.126 14.9009 419.37 15.2477C418.855 15.4209 416.668 16.5347 416.157 16.7232C415.034 17.1375 414.104 18.4846 412.947 18.2179C411.84 17.9627 411.42 16.4314 411.242 15.1541C410.836 12.2441 412.29 7.902 413.736 5.46449C414.833 3.61477 416.689 2.55023 418.546 1.85768C420.72 1.10153 422.954 0.592946 425.216 0.339306C428.269 -0.0737605 431.431 -0.292914 434.357 0.788194C437.283 1.8693 439.947 4.51393 440.493 7.97977C440.607 8.70173 440.628 9.44122 440.768 10.1573C441.108 11.904 442.117 13.3723 442.705 15.0301C443.13 16.2477 443.327 17.5537 443.284 18.8638C443.241 20.174 442.959 21.4593 442.455 22.6369C441.64 24.5143 440.223 26.3184 440.529 28.3857L438.007 26.1076C437.643 25.8703 437.36 25.4971 437.207 25.0502C437.054 24.6032 437.039 24.1096 437.165 23.6517L437.532 20.0341C437.659 19.3787 437.602 18.6941 437.368 18.0782C436.247 15.8351 435.76 19.5005 434.882 19.3735Z" fill="#2F2E41"/>
<path opacity="0.1" d="M458.589 88.9139L455.511 103.579C458.615 103.706 462.723 103.773 467.076 103.676C468.174 99.9022 469.224 95.9674 470.027 92.2834C472.969 78.8054 468.067 58.2141 465.452 48.48C462.838 38.7459 456.302 36.1252 456.302 36.1252C453.622 37.2047 451.091 38.7176 448.785 40.6178C444.537 43.9873 458.589 88.9139 458.589 88.9139Z" fill="black"/>
<path opacity="0.1" d="M455.975 88.1651L452.769 103.433C453.553 103.485 454.475 103.534 455.511 103.579C457.929 103.676 460.955 103.74 464.233 103.713C465.413 99.7037 466.554 95.4731 467.413 91.5345C470.354 78.0566 465.452 57.4652 462.838 47.7311C460.223 37.9971 454.504 48.6671 454.504 48.6671C454.504 48.6671 456.792 42.3025 452.543 45.672C448.295 49.0415 455.975 88.1651 455.975 88.1651Z" fill="black"/>
<path d="M454.994 35.3763C454.994 35.3763 461.53 37.997 464.145 47.7311C466.759 57.4652 471.661 78.0566 468.72 91.5345C465.779 105.013 459.57 121.86 459.57 121.86C459.57 121.86 453.36 116.619 451.073 117.742L457.282 88.1651C457.282 88.1651 443.229 43.2385 447.478 39.869C449.784 37.9687 452.315 36.4559 454.994 35.3763V35.3763Z" fill="#575A89"/>
<path d="M459.866 223.166L369.449 7.31844L218.265 90.4315L273.867 223.166H459.866Z" fill="#F2F2F2"/>
<path d="M338.852 92.0436L258.553 136.188L260.945 141.898L341.244 97.7534L338.852 92.0436Z" fill="#3F3D56"/>
<path d="M360.112 142.797L279.813 186.941L282.205 192.651L362.504 148.507L360.112 142.797Z" fill="#3F3D56"/>
<path d="M374.716 62.1807L354.78 73.1407L364.347 95.9797L384.283 85.0197L374.716 62.1807Z" fill="#3F3D56"/>
<path d="M395.976 112.934L376.04 123.894L385.607 146.733L405.543 135.773L395.976 112.934Z" fill="#3F3D56"/>
<path d="M376.09 46.361L367.879 73.1228L356.811 68.6661L355.297 73.6028L370.66 79.788L380.398 48.0961L376.09 46.361Z" fill="#57B894"/>
<path d="M397.35 97.1141L389.139 123.876L378.072 119.42L376.557 124.356L391.92 130.541L401.659 98.8492L397.35 97.1141Z" fill="#57B894"/>
<path d="M8.72595 471.594L49.5756 461.597L40.8498 414.8L0.000141329 424.797L8.72595 471.594Z" fill="#F2F2F2"/>
<path d="M48.4395 402.297C48.4395 402.297 33.4353 414.574 38.4367 419.485C43.4381 424.396 53.4408 404.752 53.4408 404.752L48.4395 402.297Z" fill="#FFB9B9"/>
<path d="M117.744 421.122C117.744 421.122 114.886 462.048 114.172 467.777C113.457 473.507 112.743 525.073 111.314 530.803C109.885 536.532 108.456 550.447 108.456 550.447H99.8823C99.8823 550.447 100.597 525.073 98.4533 515.251C96.3099 505.429 97.0244 478.418 97.0244 478.418C97.0244 478.418 92.7375 430.126 94.8809 423.578C97.0244 417.03 117.744 421.122 117.744 421.122Z" fill="#FFB9B9"/>
<path d="M106.313 547.991C106.313 547.991 109.885 550.447 109.885 552.084C109.885 553.721 109.171 557.813 109.885 559.45C110.599 561.087 115.601 567.636 112.743 569.273C109.885 570.91 97.0243 569.273 97.0243 569.273C97.0243 569.273 97.7388 557.813 98.4532 556.995C99.1677 556.176 97.7388 547.991 97.7388 547.991H106.313Z" fill="#2F2E41"/>
<path d="M63.1263 420.119C63.1263 420.119 62.2186 461.162 62.4042 466.946C62.5897 472.73 58.5755 524.097 59.4716 529.967C60.3677 535.837 60.5138 549.846 60.5138 549.846L69.0402 550.877C69.0402 550.877 70.6546 525.558 73.6862 516.048C76.7177 506.538 78.4821 479.59 78.4821 479.59C78.4821 479.59 87.1701 432.08 85.6385 425.311C84.1068 418.541 63.1263 420.119 63.1263 420.119Z" fill="#FFB9B9"/>
<path d="M62.8704 547.662C62.8704 547.662 59.0927 549.674 58.9427 551.302C58.7927 552.93 59.1283 557.086 58.2677 558.628C57.4072 560.17 51.8335 566.081 54.5256 568.052C57.2178 570.024 70.1574 569.943 70.1574 569.943C70.1574 569.943 70.4968 558.461 69.8613 557.561C69.2258 556.661 71.3968 548.693 71.3968 548.693L62.8704 547.662Z" fill="#2F2E41"/>
<path d="M107.742 359.734C107.742 359.734 113.457 360.553 115.601 374.467C117.744 388.382 125.604 423.578 119.173 426.033C112.743 428.489 93.4519 433.4 92.7374 431.763C92.0229 430.126 90.594 426.033 90.594 426.033C90.594 426.033 92.7374 433.4 89.8795 433.4C87.0216 433.4 59.1567 428.489 59.8712 426.033C60.5856 423.578 62.0146 405.571 62.0146 405.571C62.0146 405.571 66.3015 375.286 70.5884 370.375C71.8291 369.01 72.7923 367.349 73.4097 365.511C74.0271 363.672 74.2835 361.699 74.1608 359.734H107.742Z" fill="#2F2E41"/>
<path d="M118.459 353.186C118.459 353.186 109.17 350.731 107.742 354.005C106.313 357.279 111.314 362.19 113.457 362.19C115.601 362.19 119.173 359.734 119.173 359.734L118.459 353.186Z" fill="#FFB9B9"/>
<path d="M99.1678 283.613C106.271 283.613 112.029 277.017 112.029 268.88C112.029 260.743 106.271 254.147 99.1678 254.147C92.0651 254.147 86.3071 260.743 86.3071 268.88C86.3071 277.017 92.0651 283.613 99.1678 283.613Z" fill="#FFB9B9"/>
<path d="M97.0244 279.52C97.0244 279.52 94.8809 290.979 96.3099 290.979C97.7388 290.979 85.5926 298.346 85.5926 298.346L76.3043 296.709L73.4464 291.798C73.4464 291.798 88.4506 280.339 88.4506 273.791C88.4506 267.243 97.0244 279.52 97.0244 279.52Z" fill="#FFB9B9"/>
<path d="M90.594 290.979C90.594 290.979 92.7374 289.342 93.4519 289.342H99.1678C99.8823 289.342 109.171 291.798 109.171 291.798L114.886 328.631C114.886 328.631 104.884 347.457 112.029 362.19C112.029 362.19 109.885 360.553 99.8823 361.371C89.8795 362.19 72.0174 364.645 71.3029 364.645C70.5885 364.645 70.5885 358.097 71.3029 356.46C72.0174 354.823 70.5885 355.642 70.5885 351.549C70.5885 347.457 68.445 340.09 68.445 340.09L58.4423 298.346C58.4423 298.346 71.303 290.161 73.4464 290.979C75.5899 291.798 82.0202 294.253 83.4492 293.435C84.8781 292.616 90.594 290.979 90.594 290.979Z" fill="#6C63FF"/>
<path d="M107.027 292.616L109.17 291.798C109.17 291.798 113.457 290.979 118.459 295.891C123.46 300.802 142.037 315.535 142.037 315.535C142.037 315.535 149.182 322.083 147.038 329.449C144.895 336.816 141.322 354.823 130.605 354.005C130.605 354.005 124.175 363.827 120.602 362.19C117.03 360.553 114.172 354.005 116.315 353.186C118.459 352.368 124.175 344.183 124.175 344.183L117.03 328.631H114.886L107.027 323.72L107.027 292.616Z" fill="#6C63FF"/>
<path d="M64.1581 297.527L58.4422 298.346C58.4422 298.346 53.4408 300.802 54.1553 311.442C54.8698 322.083 49.8684 370.375 52.0119 376.104C52.0119 376.104 44.867 403.934 46.296 404.752C47.725 405.571 56.2988 410.482 55.5843 407.208C54.8698 403.934 63.4436 381.015 63.4436 381.015C63.4436 381.015 73.4464 368.738 69.1595 351.549V337.634L64.1581 297.527Z" fill="#6C63FF"/>
<path d="M109.871 283.124L100.788 285.391L99.6211 280.267L100.07 285.57L85.4172 289.227L84.7728 286.399L85.0205 289.326L75.6355 291.668L73.6279 269.59C71.5639 260.531 79.0968 250.875 87.005 248.51L90.5133 247.461C96.3217 245.725 106.88 247.304 108.396 253.958C105.742 265.559 101.219 278.277 109.871 283.124Z" fill="#2F2E41"/>
</g>
<defs>
<clipPath id="clip0">
<rect width="662" height="570" fill="white"/>
</clipPath>
</defs>
</svg>
