<svg width="705" height="534" viewBox="0 0 705 534" fill="none" xmlns="http://www.w3.org/2000/svg">
<path d="M242.328 326.46C243.052 324.377 244.257 322.739 245.259 320.917C245.114 321.088 244.962 321.249 244.806 321.399C244.064 321.847 243.378 322.462 242.774 323.221C242.405 323.952 242.155 324.792 242.043 325.679L240.317 335.222C240.655 334.615 240.994 334.017 241.339 333.42C241.318 331.026 241.655 328.654 242.328 326.46V326.46Z" fill="#F2F2F2"/>
<path d="M405.308 332.909C405.193 333.989 404.965 335.039 404.631 336.023C404.648 340.062 404.27 344.085 403.507 347.976C403.188 349.618 402.95 351.29 402.796 352.98C401.198 368.539 399.655 384.792 402.383 399.869C402.58 398.953 402.936 398.124 403.419 397.459C405.22 394.306 405.931 390.19 406.466 386.199C409.275 365.184 408.497 343.725 407.82 322.257C407.402 321.6 406.901 321.061 406.344 320.666C406.376 321.605 406.36 322.546 406.296 323.481C406.08 326.646 405.75 329.792 405.308 332.909Z" fill="#F2F2F2"/>
<path d="M310.375 326.479C310.357 325.254 310.178 324.044 309.847 322.912C309.497 321.968 309.055 321.098 308.534 320.329L307.072 317.957C306.327 343.137 304.743 368.384 308.033 393.034C308.568 397.025 309.279 401.141 311.08 404.293C311.563 404.959 311.919 405.788 312.115 406.703C314.823 391.655 313.3 375.373 311.702 359.814C311.548 358.125 311.311 356.453 310.992 354.811C309.791 348.483 309.516 341.872 310.186 335.386C310.454 332.433 310.518 329.45 310.375 326.479V326.479Z" fill="#F2F2F2"/>
<path d="M318.757 273.343C320.714 277.922 321.932 283.369 323.029 288.555L323.496 290.811C323.273 283.186 323.164 275.57 323.124 267.945C322.068 269.285 321.005 270.596 319.935 271.907L318.757 273.343Z" fill="#F2F2F2"/>
<path d="M334.498 530.308C334.794 524.968 334.504 519.595 333.638 514.383C333.042 511.086 332.121 507.856 332.04 504.444C332.057 502.171 332.253 499.907 332.622 497.696C335.405 477.548 336.603 456.35 332.392 436.713C331.262 431.449 329.765 426.359 328.614 421.106C328.09 423.077 327.451 424.982 326.705 426.803C326.546 425.956 326.256 425.171 325.856 424.504C325.457 423.837 324.958 423.305 324.397 422.947C324.428 423.886 324.412 424.826 324.349 425.762C324.148 428.912 323.833 432.046 323.408 435.151C323.288 436.364 323.005 437.532 322.575 438.593C322.014 439.698 321.264 440.581 320.395 441.157C320.788 442.42 321.181 443.692 321.567 444.955L318.743 446.189C320.598 451.973 319.055 458.567 318.066 464.717C314.526 486.108 317.714 508.955 316.035 530.578L334.498 530.308Z" fill="#F2F2F2"/>
<path d="M324.248 224.275C324.972 222.193 326.177 220.554 327.179 218.732C327.034 218.904 326.882 219.065 326.726 219.214C325.984 219.662 325.298 220.278 324.695 221.036C324.325 221.767 324.075 222.607 323.963 223.494L322.237 233.038C322.575 232.431 322.914 231.833 323.259 231.235C323.238 228.842 323.575 226.469 324.248 224.275V224.275Z" fill="#F2F2F2"/>
<path d="M392.296 224.295C392.277 223.069 392.098 221.86 391.768 220.728C391.417 219.783 390.975 218.914 390.454 218.144L388.992 215.773C388.261 240.567 386.717 265.438 389.818 289.731C390.366 287.109 390.921 284.487 391.47 281.855C392.306 277.53 393.395 273.312 394.726 269.246C394.408 265.39 394.015 261.467 393.623 257.678C393.469 255.989 393.231 254.317 392.912 252.675C391.711 246.347 391.437 239.735 392.106 233.25C392.377 230.281 392.44 227.282 392.296 224.295V224.295Z" fill="#F2F2F2"/>
<path d="M362.771 413.798L360.455 529.913L366.548 529.816C365.476 515.682 364.987 501.471 365.086 487.256C365.086 483.12 365.188 478.946 364.585 474.897C364.158 472.072 363.414 469.364 363.008 466.539C362.609 463.148 362.457 459.708 362.554 456.272L362.771 413.798Z" fill="#F2F2F2"/>
<path d="M310.409 413.856C310.504 413.538 310.599 413.22 310.687 412.892C311.005 411.716 311.29 410.53 311.554 409.335C311.533 409.378 311.515 409.423 311.499 409.47C310.965 410.723 310.382 411.928 309.78 413.104C309.996 413.355 310.206 413.596 310.409 413.856Z" fill="#F2F2F2"/>
<path d="M126.225 284.063C126.206 282.838 126.027 281.628 125.696 280.496C125.346 279.552 124.904 278.682 124.383 277.913L122.921 275.541C122.176 300.721 120.592 325.968 123.882 350.618C124.417 354.609 125.128 358.725 126.929 361.877C127.412 362.543 127.768 363.372 127.965 364.287C130.673 349.239 129.149 332.957 127.552 317.398C127.409 315.71 127.182 314.038 126.875 312.395C125.674 306.067 125.399 299.455 126.069 292.97C126.326 290.016 126.378 287.032 126.225 284.063V284.063Z" fill="#F2F2F2"/>
<path d="M126.258 371.44C126.353 371.122 126.448 370.804 126.536 370.476C126.854 369.3 127.139 368.114 127.403 366.919C127.382 366.962 127.364 367.007 127.348 367.054C126.814 368.307 126.231 369.512 125.629 370.688C125.845 370.939 126.055 371.18 126.258 371.44Z" fill="#F2F2F2"/>
<path d="M96.6994 473.567C96.3022 493.714 95.9005 513.859 95.4943 534L98.3988 533.952C97.9655 531.388 97.3223 528.9 96.9499 526.307C96.5515 522.916 96.3995 519.476 96.4963 516.041L96.6994 473.567Z" fill="#F2F2F2"/>
<path d="M140.198 531.792C139.329 531.211 138.578 530.321 138.018 529.209C137.582 528.125 137.299 526.929 137.186 525.69C136.76 522.585 136.446 519.451 136.245 516.301C136.181 515.365 136.165 514.425 136.197 513.486C135.635 513.844 135.137 514.376 134.737 515.043C134.338 515.71 134.048 516.495 133.889 517.342C131.916 512.37 130.625 506.911 130.084 501.253C129.881 502.217 129.671 503.277 129.407 504.28C127.998 510.247 125.954 516.021 125.548 522.297C125.353 526.074 125.582 529.872 126.225 533.547L139.67 533.335C139.914 532.814 140.043 532.303 140.198 531.792Z" fill="#F2F2F2"/>
<path d="M149.04 499.961C149.304 501.156 149.589 502.342 149.907 503.518C149.995 503.836 150.09 504.155 150.185 504.482C150.388 504.222 150.598 503.981 150.814 503.74C150.212 502.564 149.629 501.359 149.095 500.106C149.079 500.055 149.061 500.007 149.04 499.961V499.961Z" fill="#F2F2F2"/>
<path d="M246.038 520.012C245.089 514.269 244.439 508.434 244.095 502.554C243.021 488.415 241.946 474.277 240.872 460.138C240.838 459.772 240.811 459.396 240.784 459.029C240.744 459.213 240.71 459.396 240.669 459.579C239.85 463.001 238.225 465.883 236.607 468.698C234.989 471.513 232.965 474.425 230.588 473.596C229.614 473.142 228.73 472.366 228.009 471.33L222.592 464.669C221.523 463.358 220.46 462.047 219.404 460.707C219.356 470.009 219.207 479.302 218.869 488.595C218.761 491.536 218.591 494.601 217.616 497.165C219.614 506.005 220.722 515.203 220.907 524.485C220.954 527.001 220.907 529.517 220.853 532.033L236.722 531.783H236.817L248.753 531.6C247.758 527.801 246.756 523.965 246.038 520.012Z" fill="#F2F2F2"/>
<path d="M219.228 424.036C219.566 424.634 219.905 425.231 220.25 425.839L218.523 416.295C218.412 415.408 218.162 414.568 217.792 413.837C217.188 413.078 216.503 412.463 215.761 412.015C215.604 411.865 215.453 411.704 215.308 411.533C216.31 413.355 217.515 414.994 218.239 417.076C218.912 419.27 219.249 421.643 219.228 424.036V424.036Z" fill="#F2F2F2"/>
<path d="M238.855 381.716C239.281 388.416 239.532 395.135 239.768 401.854C240.005 408.574 240.249 415.119 240.486 421.751C241.039 416.62 241.877 411.559 242.991 406.617C242.016 404.052 241.847 400.987 241.739 398.047C241.4 388.754 241.251 379.461 241.204 370.158C240.168 371.479 239.119 372.77 238.062 374.014C238.456 376.551 238.72 379.125 238.855 381.716Z" fill="#F2F2F2"/>
<path d="M148.912 450.382C147.314 465.941 145.77 482.194 148.499 497.271C148.695 496.356 149.051 495.527 149.534 494.861C151.335 491.709 152.046 487.593 152.581 483.602C155.871 458.952 154.287 433.705 153.542 408.525L152.1 410.897C151.563 411.677 151.107 412.563 150.746 413.528C150.405 414.673 150.219 415.9 150.198 417.143C150.065 420.099 150.135 423.066 150.408 426.003C151.076 432.457 150.808 439.038 149.622 445.341C149.302 446.995 149.064 448.68 148.912 450.382V450.382Z" fill="#F2F2F2"/>
<path d="M393.731 529.392L399.039 529.315C396.209 506.102 400.291 481.182 396.446 457.979C395.843 454.364 395.092 450.575 394.902 446.902C393.548 452.021 391.998 457.073 391.645 462.5C391.029 471.88 394.13 480.864 395.281 490.148C396.865 502.94 394.719 515.983 393.765 528.9C393.751 529.074 393.744 529.209 393.731 529.392Z" fill="#F2F2F2"/>
<path d="M576.243 517.757C570.096 491.671 576.243 462.596 571.795 435.816C570.773 429.666 569.229 423.024 571.118 417.288L568.295 416.054C568.681 414.791 569.074 413.519 569.466 412.256C568.917 411.858 568.407 411.359 567.95 410.772L565.878 437.966C565.533 443.846 564.884 449.681 563.935 455.424C562.764 461.835 560.861 467.956 559.5 474.27C555.865 491.198 556.264 509.283 558.221 526.857L578.532 526.548C577.787 523.608 576.941 520.706 576.243 517.757Z" fill="#F2F2F2"/>
<path d="M566.745 259.905L566.799 259.635L567.043 258.507C566.462 257.823 565.82 257.253 565.133 256.81C564.977 256.661 564.825 256.5 564.68 256.328C565.35 257.543 566.102 258.671 566.745 259.905Z" fill="#F2F2F2"/>
<path d="M498.385 344.757C498.65 345.952 498.934 347.138 499.252 348.314C499.34 348.632 499.435 348.95 499.53 349.278C499.733 349.017 499.943 348.776 500.159 348.535C499.557 347.359 498.975 346.154 498.44 344.901C498.425 344.851 498.406 344.802 498.385 344.757Z" fill="#F2F2F2"/>
<path d="M581.815 364.065C583.894 348.526 584.029 332.755 583.657 316.916C583.163 317.557 582.572 318.028 581.93 318.29C581.287 318.553 580.611 318.6 579.953 318.43L579.838 318.381C579.673 320.906 579.344 323.404 578.857 325.843C578.537 327.485 578.3 329.156 578.146 330.846C576.548 346.405 575.004 362.658 577.733 377.735C577.929 376.82 578.286 375.99 578.769 375.325C580.57 372.173 581.28 368.056 581.815 364.065Z" fill="#F2F2F2"/>
<path d="M280.783 531.137C280.783 526.085 280.805 521.031 280.85 515.973C280.747 521.024 280.647 526.079 280.553 531.137H280.783Z" fill="#F2F2F2"/>
<path d="M702.684 112.943C702.233 109.312 701.698 105.742 701.08 102.233C694.513 64.4246 679.138 34.2513 650.98 17.9211C648.565 16.5201 646.056 15.2347 643.452 14.0651C637.526 11.3848 631.471 9.32281 625.334 7.89544C566.271 -6.16937 516.604 0.520812 471.832 13.2071C469.307 13.9108 466.802 14.6531 464.304 15.405C401.544 34.2898 348.099 63.5474 291.073 60.9927C288.575 60.8867 286.063 60.7132 283.552 60.4818C258.691 58.1297 233.046 49.4633 205.579 31.0315C173.115 9.25469 140.104 16.5715 110.321 42.5032C93.5106 57.1174 77.7292 77.67 63.6538 102.271L63.6064 102.348C61.6205 105.819 59.6707 109.354 57.7569 112.953C11.9562 199.597 -13.4729 329.159 7.38625 429.56C8.13549 433.178 8.94792 436.752 9.82354 440.28C15.8491 464.756 24.8129 487.256 37.1077 506.671C44.2417 517.902 53.3915 526.151 63.5726 530.53C65.3193 531.301 67.0999 531.928 68.9008 532.458C69.4085 520.263 68.8195 508.078 66.3213 496.443C64.9673 490.1 63.058 484.007 61.8868 477.596C60.9377 471.853 60.2883 466.018 59.9437 460.138C58.8695 446 57.7953 431.861 56.7211 417.722C56.0441 409.046 55.367 400.235 55.5498 391.453C55.7344 382.171 56.8422 372.973 58.8402 364.133C57.8653 361.569 57.696 358.503 57.5877 355.563C57.2492 346.27 57.1002 336.977 57.0528 327.675C55.9967 329.015 54.9337 330.326 53.864 331.637L48.414 338.336C47.6924 339.372 46.8082 340.148 45.8345 340.602C43.4582 341.431 41.3526 338.423 39.8158 335.705C38.2789 332.986 36.5931 330.007 35.7536 326.585C35.1114 323.406 34.8617 320.092 35.0156 316.791C35.0698 312.559 35.2188 308.337 35.3745 304.114L36.654 268.793C36.8978 262.045 37.1415 255.355 37.568 248.655C37.8727 243.835 38.306 238.938 40.046 234.822C43.316 227.11 50.33 224.42 56.7008 225.076C56.542 224.63 56.4542 224.139 56.4437 223.639C56.4332 223.14 56.5001 222.643 56.6398 222.184C57.0383 221.322 57.609 220.651 58.2782 220.256L67.6957 213.016C68.3628 212.413 69.1176 212.034 69.9028 211.907C70.3187 211.887 70.732 212.01 71.1079 212.264L72.9291 210.452C73.3356 209.995 73.7934 209.64 74.2831 209.401C74.8944 209.182 75.5375 209.226 76.1314 209.526C76.5902 208.223 76.8552 206.799 76.91 205.343C76.8703 203.534 76.5996 201.75 76.1111 200.079C73.9397 197.739 72.1732 194.722 70.9469 191.26C69.7206 187.798 69.067 183.982 69.0362 180.105C67.0051 178.485 64.3918 177.579 63.5658 174.167C63.0039 171.843 63.6741 169.279 63.4439 166.86C62.9942 166.225 62.6516 165.454 62.442 164.604C61.8597 162.203 62.618 159.524 62.3065 157.017C62.1305 155.639 61.6295 154.289 61.8259 152.92C62.0248 151.948 62.3927 151.063 62.8956 150.346L69.5507 139.125C71.0199 136.657 72.5364 134.122 74.5539 132.647C79.3879 129.109 85.1765 132.647 90.6062 132.647C92.4274 132.647 94.3095 132.242 96.0224 133.081C97.255 133.798 98.3876 134.823 99.3669 136.108L106.814 144.784C109.319 147.676 112.021 151.117 112.264 155.706C112.321 157.098 112.179 158.492 111.844 159.803C112.708 161.379 113.24 163.271 113.381 165.259C113.551 168.441 112.467 171.487 111.222 174.138C109.351 178.091 107.068 181.614 104.451 184.588C103.839 189.162 102.356 193.41 100.166 196.869C100.656 200.231 101.299 203.544 102.089 206.789C102.107 206.845 102.123 206.903 102.136 206.962C102.769 207.014 103.379 207.318 103.896 207.839C104.43 208.408 104.92 209.054 105.359 209.767C105.595 209.239 105.94 208.828 106.347 208.591C107.349 208.023 108.473 208.668 109.455 209.305C112.44 211.233 115.48 213.247 117.911 216.38C118.796 217.525 119.541 218.87 120.118 220.362C123.523 219.685 126.983 220.825 129.833 223.562C134.951 228.556 137.057 237.675 138.837 246.139C140.164 252.476 141.494 258.806 142.825 265.13C144.572 273.44 146.332 281.846 146.738 290.503C147.111 298.379 146.352 306.264 145.594 314.082C144.545 324.908 147.016 336.775 147.05 347.697C147.05 350.502 147.05 353.346 147.002 356.18C149.762 353.752 153.03 352.767 156.244 353.394C156.82 351.903 157.566 350.557 158.451 349.413C160.881 346.28 163.921 344.284 166.907 342.337C167.889 341.701 169.012 341.055 170.014 341.624C170.421 341.861 170.767 342.272 171.003 342.8C171.442 342.086 171.932 341.44 172.465 340.872C172.983 340.35 173.593 340.046 174.226 339.995C174.238 339.935 174.254 339.877 174.273 339.821C175.063 336.577 175.705 333.263 176.196 329.901C174.005 326.443 172.523 322.195 171.91 317.62C169.294 314.647 167.011 311.123 165.14 307.17C163.894 304.519 162.811 301.473 162.98 298.292C163.121 296.303 163.654 294.412 164.517 292.836C164.183 291.525 164.04 290.131 164.097 288.738C164.341 284.15 167.042 280.718 169.547 277.816L176.995 269.14C177.974 267.856 179.107 266.831 180.339 266.113C182.059 265.275 183.941 265.68 185.755 265.68C191.172 265.68 196.974 262.161 201.808 265.68C203.839 267.154 205.342 269.69 206.811 272.158L213.554 283.388C214.057 284.105 214.425 284.99 214.624 285.962C214.813 287.331 214.319 288.681 214.143 290.059C213.832 292.566 214.59 295.246 214.008 297.646C213.798 298.496 213.455 299.268 213.006 299.902C212.775 302.321 213.446 304.886 212.884 307.209C212.058 310.621 209.458 311.528 207.413 313.147C207.383 317.024 206.729 320.84 205.503 324.302C204.276 327.764 202.51 330.781 200.338 333.121C199.85 334.792 199.579 336.576 199.54 338.385C199.594 339.841 199.859 341.265 200.318 342.568C200.912 342.268 201.555 342.224 202.166 342.443C202.656 342.682 203.114 343.038 203.52 343.494L205.342 345.306C205.718 345.052 206.131 344.929 206.547 344.95C207.332 345.076 208.087 345.455 208.754 346.058L218.151 353.221C218.563 353.519 218.949 353.885 219.302 354.31C219.376 351.717 219.458 349.114 219.552 346.521L220.832 311.2C221.076 304.452 221.319 297.762 221.746 291.062C222.051 286.242 222.484 281.345 224.224 277.228C227.494 269.516 234.508 266.827 240.879 267.482C240.72 267.036 240.632 266.546 240.622 266.046C240.611 265.546 240.678 265.049 240.818 264.59C241.216 263.729 241.787 263.057 242.456 262.662L251.847 255.432C252.514 254.829 253.268 254.45 254.054 254.324C254.47 254.303 254.883 254.426 255.259 254.68L257.08 252.868C257.487 252.412 257.944 252.056 258.434 251.817C259.045 251.599 259.688 251.642 260.282 251.943C260.741 250.639 261.006 249.215 261.061 247.759C261.021 245.95 260.751 244.166 260.262 242.495C258.091 240.155 256.324 237.139 255.098 233.676C253.871 230.214 253.218 226.398 253.187 222.521C251.156 220.902 248.543 219.995 247.717 216.583C247.155 214.26 247.825 211.695 247.595 209.276C247.145 208.642 246.803 207.87 246.593 207.02C246.011 204.62 246.769 201.94 246.457 199.433C246.232 198.346 246.06 197.238 245.943 196.117C245.204 198.098 244.636 200.199 244.25 202.373C243.296 207.839 243.465 213.566 242.896 219.128C242.693 221.056 242.307 223.119 241.163 224.141C240.276 224.922 239.132 224.864 238.177 225.432C236.58 226.396 235.693 228.893 235.469 231.342C235.246 233.79 235.517 236.258 235.517 238.726C235.517 245.175 233.343 251.846 229.39 254.989C224.183 259.124 217.718 256.387 212.092 253.572C214.599 252.284 216.826 250.084 218.55 247.19L212.356 245.435C215.958 243.062 219.29 239.933 222.24 236.152C223.343 234.909 224.209 233.291 224.759 231.448C225.436 228.749 224.806 225.664 225.436 222.955C226.485 218.328 230.473 216.564 232.504 212.659C234.285 209.247 234.345 204.668 234.339 200.417L234.305 184.241C234.305 179.584 234.515 174.225 237.121 171.4C240.026 168.238 244.142 170.041 247.798 170.002C251.65 170.002 255.32 167.727 259.152 167.11C262.767 166.513 268.799 170.128 268.698 174.205C270.71 174.72 272.747 175.023 274.791 175.111C276.612 175.111 278.494 174.707 280.207 175.545C281.44 176.263 282.572 177.288 283.552 178.572L290.999 187.248C293.504 190.14 296.205 193.582 296.415 198.17C296.472 199.563 296.329 200.957 295.995 202.267C296.859 203.844 297.391 205.735 297.532 207.724C297.701 210.905 296.618 213.951 295.372 216.602C293.502 220.555 291.219 224.079 288.602 227.052C287.99 231.627 286.507 235.875 284.317 239.333C284.807 242.695 285.449 246.009 286.239 249.253C286.258 249.309 286.274 249.367 286.287 249.426C286.92 249.478 287.53 249.782 288.047 250.304C288.581 250.872 289.071 251.518 289.509 252.232C289.746 251.704 290.091 251.293 290.498 251.056C291.5 250.487 292.624 251.133 293.605 251.769C296.238 253.32 298.737 255.296 301.053 257.659C301.053 257.457 301.053 257.264 301.053 257.071C301.107 252.839 301.256 248.617 301.412 244.394L302.691 209.073C302.935 202.325 303.179 195.635 303.605 188.935C303.91 184.115 304.343 179.218 306.083 175.102C309.353 167.39 316.367 164.7 322.738 165.356C322.579 164.91 322.491 164.419 322.481 163.919C322.47 163.42 322.537 162.923 322.677 162.464C323.075 161.602 323.646 160.931 324.315 160.536L333.767 153.248C334.434 152.645 335.189 152.266 335.974 152.139C336.39 152.119 336.803 152.241 337.179 152.496L339 150.684C339.407 150.227 339.864 149.872 340.354 149.633C340.965 149.414 341.608 149.458 342.202 149.758C342.661 148.455 342.926 147.03 342.981 145.574C342.941 143.765 342.671 141.982 342.182 140.311C340.011 137.971 338.244 134.954 337.018 131.492C335.792 128.03 335.138 124.214 335.107 120.337C333.076 118.717 330.463 117.811 329.637 114.399C329.075 112.075 329.745 109.511 329.515 107.091C329.065 106.457 328.723 105.686 328.513 104.836C327.931 102.435 328.689 99.7553 328.377 97.2489C328.201 95.8704 327.7 94.5208 327.897 93.1519C328.096 92.1795 328.464 91.2943 328.966 90.578L335.622 79.357C337.091 76.8892 338.607 74.3538 340.625 72.8789C345.459 69.341 351.247 72.8789 356.677 72.8789C358.498 72.8789 360.38 72.474 362.093 73.3127C363.326 74.03 364.459 75.0551 365.438 76.3397L372.885 85.0157C375.39 87.9077 378.091 91.3492 378.301 95.9378C378.358 97.3299 378.216 98.724 377.882 100.035C378.745 101.611 379.278 103.502 379.418 105.491C379.588 108.672 378.504 111.719 377.259 114.37C375.388 118.323 373.105 121.846 370.488 124.819C369.876 129.394 368.393 133.642 366.203 137.101C366.693 140.463 367.336 143.776 368.126 147.02C368.144 147.077 368.16 147.135 368.173 147.194C368.806 147.246 369.416 147.55 369.933 148.071C370.467 148.639 370.957 149.286 371.396 149.999C371.632 149.471 371.977 149.06 372.384 148.823C373.386 148.254 374.51 148.9 375.492 149.536C378.477 151.464 381.517 153.479 383.948 156.612C384.833 157.757 385.579 159.102 386.155 160.594C389.56 159.917 393.02 161.057 395.87 163.794C400.988 168.788 403.094 177.907 404.875 186.371C406.202 192.708 407.531 199.038 408.862 205.362C410.609 213.672 412.369 222.078 412.776 230.734C413.121 238.099 412.478 245.464 411.773 252.781C411.943 252.531 412.112 252.29 412.302 252.049C414.732 248.916 417.772 246.92 420.758 244.973C421.739 244.337 422.863 243.691 423.865 244.259C424.272 244.496 424.617 244.907 424.854 245.435C425.292 244.722 425.783 244.076 426.316 243.507C426.834 242.986 427.443 242.682 428.076 242.63C428.089 242.571 428.105 242.513 428.124 242.457C428.914 239.212 429.556 235.899 430.046 232.537C427.856 229.079 426.374 224.831 425.761 220.256C423.144 217.283 420.861 213.759 418.991 209.806C417.745 207.155 416.662 204.109 416.831 200.927C416.972 198.939 417.505 197.047 418.368 195.471C418.034 194.16 417.891 192.766 417.948 191.374C418.192 186.786 420.893 183.354 423.364 180.452L430.811 171.776C431.791 170.491 432.923 169.466 434.156 168.749C435.876 167.91 437.758 168.315 439.572 168.315C441.616 168.227 443.653 167.924 445.665 167.409C445.564 163.331 451.596 159.697 455.211 160.314C459.037 160.941 462.713 163.206 466.565 163.206C470.221 163.206 474.337 161.442 477.242 164.604C479.848 167.428 480.065 172.788 480.058 177.444L480.024 193.62C480.024 197.872 480.079 202.451 481.859 205.863C483.795 209.584 487.499 211.358 488.751 215.503C490.281 209.902 492.353 204.706 495.779 201.361C498.629 198.624 502.089 197.484 505.494 198.161C506.07 196.669 506.816 195.324 507.701 194.179C510.132 191.046 513.172 189.051 516.157 187.104C517.139 186.467 518.263 185.822 519.265 186.39C519.672 186.627 520.017 187.038 520.253 187.566C520.692 186.853 521.182 186.207 521.716 185.638C522.233 185.117 522.843 184.813 523.476 184.761C523.489 184.702 523.505 184.644 523.523 184.588C524.313 181.343 524.955 178.03 525.446 174.668C523.255 171.209 521.773 166.961 521.16 162.387C518.544 159.413 516.261 155.89 514.39 151.937C513.144 149.286 512.061 146.24 512.23 143.058C512.371 141.07 512.904 139.178 513.767 137.602C513.433 136.291 513.29 134.897 513.348 133.505C513.591 128.916 516.293 125.485 518.764 122.583L526.211 113.907C527.19 112.622 528.323 111.597 529.556 110.88C531.275 110.041 533.157 110.446 534.972 110.446C537.016 110.358 539.052 110.055 541.065 109.54C540.963 105.462 546.996 101.828 550.611 102.445C554.436 103.071 558.113 105.337 561.965 105.337C565.621 105.337 569.737 103.573 572.641 106.735C575.248 109.559 575.465 114.919 575.458 119.575L575.424 135.751C575.424 140.002 575.478 144.581 577.259 147.994C579.29 151.898 583.278 153.662 584.327 158.29C584.936 161.018 584.327 164.074 585.004 166.782C585.595 168.682 586.524 170.33 587.699 171.564C589.212 173.514 590.831 175.294 592.539 176.885C592.817 175.605 593.25 174.405 593.819 173.338C593.485 172.027 593.342 170.633 593.399 169.241C593.643 164.652 596.344 161.22 598.815 158.319L606.263 149.642C607.242 148.358 608.375 147.333 609.607 146.616C611.327 145.777 613.209 146.182 615.023 146.182C620.439 146.182 626.242 142.663 631.076 146.182C633.107 147.657 634.61 150.192 636.079 152.66L642.734 163.881C643.237 164.597 643.605 165.482 643.804 166.455C643.993 167.824 643.499 169.173 643.323 170.552C643.012 173.058 643.77 175.738 643.187 178.138C642.978 178.989 642.635 179.76 642.186 180.394C641.955 182.814 642.626 185.378 642.064 187.701C641.238 191.114 638.638 192.02 636.593 193.64C636.562 197.517 635.909 201.333 634.683 204.795C633.456 208.257 631.69 211.274 629.518 213.614C629.03 215.285 628.759 217.068 628.719 218.877C628.774 220.333 629.039 221.757 629.498 223.061C630.092 222.761 630.735 222.717 631.346 222.936C631.836 223.175 632.294 223.53 632.7 223.986L634.522 225.799C634.897 225.544 635.311 225.422 635.727 225.442C636.512 225.569 637.267 225.948 637.934 226.551L647.331 233.713C648 234.108 648.571 234.78 648.969 235.641C649.109 236.1 649.176 236.597 649.165 237.097C649.155 237.597 649.067 238.087 648.908 238.533C655.279 237.878 662.293 240.567 665.563 248.279C667.303 252.396 667.736 257.331 668.041 262.113C668.468 268.813 668.718 275.532 668.955 282.251L670.235 317.572C670.39 321.794 670.539 326.017 670.593 330.248C670.747 333.549 670.498 336.863 669.856 340.043C669.036 343.465 667.411 346.347 665.793 349.162C664.175 351.977 662.151 354.888 659.775 354.059C658.801 353.606 657.917 352.829 657.195 351.794L651.745 345.133C650.675 343.822 649.613 342.511 648.556 341.171C648.509 350.473 648.36 359.766 648.021 369.059C647.913 371.999 647.744 375.065 646.769 377.629C648.767 386.469 649.875 395.667 650.059 404.949C650.11 412.52 649.812 420.088 649.166 427.603C649.734 425.878 650.303 424.152 650.878 422.388C680.309 332.88 714.235 203.877 702.684 112.943Z" fill="#F2F2F2"/>
<path d="M57.9195 283.263L56.1931 292.806C56.5316 292.199 56.8701 291.601 57.2154 291.004C57.1858 288.613 57.5135 286.24 58.1767 284.044C58.9012 281.961 60.1063 280.323 61.1083 278.501C60.9628 278.672 60.8114 278.833 60.6547 278.983C59.9133 279.431 59.2275 280.046 58.6236 280.805C58.2632 281.539 58.0227 282.379 57.9195 283.263V283.263Z" fill="#F2F2F2"/>
<path d="M473.112 326.672C473.451 327.269 473.789 327.867 474.134 328.474L472.408 318.931C472.297 318.044 472.047 317.204 471.677 316.473C471.073 315.714 470.387 315.099 469.646 314.651C469.489 314.501 469.338 314.34 469.192 314.169C470.194 315.991 471.399 317.629 472.124 319.712C472.796 321.906 473.133 324.278 473.112 326.672V326.672Z" fill="#F2F2F2"/>
<path d="M579.419 384.936C579.622 384.676 579.832 384.435 580.048 384.194C579.446 383.018 578.863 381.813 578.329 380.56C578.313 380.513 578.295 380.467 578.274 380.425C578.539 381.62 578.823 382.806 579.141 383.982C579.229 384.3 579.304 384.608 579.419 384.936Z" fill="#F2F2F2"/>
<path d="M402.925 402.597C403.189 403.792 403.473 404.978 403.792 406.154C403.88 406.472 403.974 406.79 404.069 407.118C404.272 406.858 404.482 406.617 404.699 406.376C404.096 405.2 403.514 403.995 402.979 402.741C402.964 402.691 402.946 402.643 402.925 402.597Z" fill="#F2F2F2"/>
<path d="M461.298 215.792C461.267 219.669 460.613 223.485 459.387 226.947C458.161 230.41 456.394 233.426 454.223 235.766C453.734 237.437 453.464 239.221 453.424 241.03C453.479 242.486 453.744 243.91 454.203 245.214C454.797 244.913 455.44 244.87 456.051 245.088C456.541 245.327 456.998 245.683 457.405 246.139L459.226 247.951C459.602 247.697 460.015 247.574 460.431 247.595C461.216 247.721 461.971 248.1 462.638 248.703L472.035 255.866C472.705 256.261 473.275 256.932 473.674 257.794C473.814 258.253 473.881 258.75 473.87 259.249C473.86 259.749 473.772 260.24 473.613 260.686C475.628 260.472 477.654 260.611 479.645 261.1C480.367 255.716 481.305 250.396 482.455 245.165C480.206 241.507 478.978 236.801 479.002 231.939C479.002 229.471 479.28 226.994 479.049 224.555C478.819 222.116 477.932 219.581 476.341 218.646C475.373 218.077 474.243 218.135 473.356 217.354C472.212 216.332 471.826 214.25 471.623 212.341C471.034 206.779 471.203 201.053 470.268 195.587C469.883 193.412 469.314 191.312 468.576 189.33C468.459 190.451 468.287 191.559 468.061 192.646C467.75 195.153 468.508 197.833 467.926 200.233C467.716 201.083 467.374 201.855 466.924 202.489C466.694 204.909 467.364 207.473 466.802 209.796C465.942 213.266 463.342 214.173 461.298 215.792Z" fill="#F2F2F2"/>
<path d="M498.257 295.178C496.659 310.737 495.115 326.99 497.844 342.067C498.04 341.152 498.397 340.322 498.88 339.657C500.68 336.505 501.391 332.388 501.926 328.397C505.217 303.748 503.632 278.501 502.888 253.321L501.446 255.692C500.908 256.472 500.452 257.359 500.091 258.324C499.75 259.469 499.564 260.695 499.543 261.939C499.41 264.895 499.48 267.862 499.753 270.798C500.421 277.253 500.153 283.834 498.968 290.136C498.647 291.791 498.409 293.475 498.257 295.178V295.178Z" fill="#F2F2F2"/>
<path d="M487.953 374.968C487.478 375.532 486.922 375.938 486.323 376.157C485.724 376.375 485.099 376.401 484.493 376.231C483.519 375.778 482.635 375.001 481.913 373.966L476.497 367.305C475.428 365.993 474.365 364.682 473.308 363.342C473.261 372.645 473.112 381.938 472.774 391.231C472.665 394.171 472.496 397.237 471.521 399.801C473.519 408.641 474.627 417.839 474.811 427.121C474.974 435.903 474.31 444.666 473.64 453.39C472.57 467.529 471.496 481.667 470.418 495.806C470.073 501.686 469.424 507.521 468.474 513.264C467.54 518.383 466.139 523.3 464.92 528.293L471.833 528.187L480.634 528.052H481.717L496.612 527.821C496.615 527.802 496.615 527.782 496.612 527.763C497.763 518.48 500.863 509.447 500.247 500.115C499.841 493.84 497.797 488.065 496.388 482.098C490.241 456.012 496.388 426.938 491.94 400.158C490.918 394.007 489.374 387.365 491.263 381.63L488.44 380.396C488.826 379.133 489.219 377.86 489.611 376.598C489.006 376.172 488.447 375.623 487.953 374.968V374.968Z" fill="#F2F2F2"/>
<path d="M433.628 509.235C433.655 515.751 433.685 522.268 433.716 528.785H434.014L433.628 509.235Z" fill="#F2F2F2"/>
<path d="M608.978 487.063C609.023 496.896 609.068 506.728 609.113 516.561L609.56 516.195C609.361 506.491 609.167 496.78 608.978 487.063Z" fill="#F2F2F2"/>
<path d="M592.566 182.293L591.422 182.621C592.062 183.682 592.774 184.651 593.548 185.513C593.14 184.494 592.81 183.414 592.566 182.293V182.293Z" fill="#F2F2F2"/>
<path d="M529.089 451.395L529.292 493.869C529.389 497.304 529.237 500.744 528.838 504.135C528.432 506.96 527.687 509.669 527.261 512.493C526.658 516.542 526.733 520.716 526.76 524.852C526.76 525.69 526.76 526.519 526.76 527.348L530.598 527.291C530.097 501.995 529.594 476.696 529.089 451.395Z" fill="#F2F2F2"/>
<path d="M648.462 304.5C648.8 305.097 649.139 305.695 649.484 306.302L647.758 296.759C647.646 295.872 647.396 295.032 647.026 294.301C646.422 293.542 645.737 292.927 644.995 292.479C644.838 292.329 644.687 292.168 644.542 291.997C645.544 293.819 646.749 295.457 647.473 297.54C648.146 299.733 648.483 302.106 648.462 304.5V304.5Z" fill="#F2F2F2"/>
<path d="M556.759 157.952C556.728 161.829 556.074 165.645 554.848 169.107C553.622 172.569 551.855 175.586 549.684 177.926C549.195 179.597 548.924 181.381 548.885 183.19C548.94 184.645 549.205 186.07 549.663 187.373C550.257 187.073 550.9 187.029 551.512 187.248C552.001 187.487 552.459 187.842 552.866 188.299L554.687 190.111C555.063 189.857 555.476 189.734 555.892 189.754C556.677 189.881 557.432 190.26 558.099 190.863L567.496 198.026C568.165 198.42 568.736 199.092 569.135 199.954C569.274 200.412 569.341 200.909 569.331 201.409C569.32 201.909 569.232 202.399 569.074 202.846C575.444 202.19 582.458 204.88 585.728 212.592C587.468 216.708 587.902 221.644 588.206 226.425C588.261 227.312 588.308 228.189 588.355 229.066C590.678 226.367 593.453 224.526 596.189 222.743C597.17 222.106 598.294 221.46 599.296 222.029C599.703 222.266 600.048 222.677 600.285 223.205C600.723 222.492 601.213 221.845 601.747 221.277C602.264 220.756 602.874 220.452 603.507 220.4C603.52 220.341 603.536 220.283 603.555 220.227C604.345 216.982 604.987 213.669 605.477 210.307C603.287 206.848 601.804 202.6 601.192 198.026C599.137 195.677 597.287 192.988 595.681 190.015C590.623 192.348 585.126 193.967 580.59 190.362C576.636 187.219 574.497 180.548 574.497 174.099C574.497 171.631 574.774 169.154 574.544 166.715C574.314 164.276 573.427 161.74 571.836 160.805C570.868 160.237 569.737 160.294 568.85 159.514C567.706 158.492 567.32 156.409 567.117 154.501C566.528 148.938 566.697 143.212 565.763 137.746C565.377 135.572 564.809 133.471 564.07 131.49C563.953 132.611 563.781 133.719 563.556 134.806C563.244 137.313 564.003 139.993 563.42 142.393C563.211 143.243 562.868 144.015 562.418 144.649C562.188 147.068 562.859 149.633 562.297 151.956C561.403 155.426 558.803 156.332 556.759 157.952Z" fill="#F2F2F2"/>
<path d="M171.545 333.545H544.856C548.246 333.545 551.498 335.463 553.895 338.876C556.292 342.289 557.639 346.918 557.639 351.745V415.688H158.762V351.765C158.761 349.373 159.09 347.004 159.732 344.794C160.373 342.583 161.314 340.575 162.501 338.883C163.689 337.191 165.098 335.848 166.65 334.932C168.202 334.016 169.865 333.545 171.545 333.545V333.545Z" fill="#3F3D56"/>
<path opacity="0.1" d="M171.545 333.545H544.856C548.246 333.545 551.498 335.463 553.895 338.876C556.292 342.289 557.639 346.918 557.639 351.745V415.688H158.762V351.765C158.761 349.373 159.09 347.004 159.732 344.794C160.373 342.583 161.314 340.575 162.501 338.883C163.689 337.191 165.098 335.848 166.65 334.932C168.202 334.016 169.865 333.545 171.545 333.545V333.545Z" fill="black"/>
<path d="M476.463 408.082V527.31L460.384 527.56L459.247 527.58L444.941 527.801H444.501L434.474 527.956L416.235 528.245L356.332 529.17L347.93 529.296L331.431 529.556L330.673 529.566L316.591 529.787L277.621 530.385L268.461 530.53L239.938 530.973V408.082H476.463Z" fill="#3F3D56"/>
<path opacity="0.1" d="M476.463 408.082V527.31L460.384 527.56L459.247 527.58L444.941 527.801H444.501L434.474 527.956L416.235 528.245L356.332 529.17L347.93 529.296L331.431 529.556L330.673 529.566L316.591 529.787L277.621 530.385L268.461 530.53L239.938 530.973V408.082H476.463Z" fill="black"/>
<path d="M158.762 407.494H557.639V421.52C557.639 426.513 556.246 431.302 553.766 434.833C551.286 438.363 547.923 440.347 544.416 440.347H172.797C169.075 440.347 165.505 438.242 162.873 434.494C160.241 430.746 158.762 425.663 158.762 420.363V407.494Z" fill="#3F3D56"/>
<path d="M279.496 423.92C295.201 423.92 307.931 419.98 307.931 415.119C307.931 410.258 295.201 406.318 279.496 406.318C263.792 406.318 251.061 410.258 251.061 415.119C251.061 419.98 263.792 423.92 279.496 423.92Z" fill="#6C63FF"/>
<path d="M277.167 416.102L276.606 374.197C276.484 364.827 276.721 354.204 281.616 347.928C284.71 343.966 289.354 342.26 291.297 337.025C292.353 334.133 292.373 330.788 292.367 327.568C292.367 308.545 292.342 289.529 292.292 270.519" stroke="#6C63FF" stroke-width="6" stroke-miterlimit="10"/>
<path d="M292.624 252.598H290.268C287.277 252.598 284.852 256.051 284.852 260.31V281.267C284.852 285.527 287.277 288.979 290.268 288.979H292.624C295.615 288.979 298.04 285.527 298.04 281.267V260.31C298.04 256.051 295.615 252.598 292.624 252.598Z" fill="#6C63FF"/>
<path d="M396.31 349.576C391.977 342.375 387.353 335.55 382.729 328.725L373.352 314.872L364.835 302.292L323.855 241.772C318.872 234.407 313.646 226.811 306.93 223.205C300.213 219.6 291.52 221.21 287.451 229.645C286.767 230.96 286.275 232.458 286.007 234.05C285.738 235.642 285.697 237.294 285.888 238.909C286.361 242.042 287.919 244.597 289.604 246.766C297.593 257.157 308.372 261.756 317.911 269.034C321.117 271.305 324.047 274.293 326.59 277.884C328.671 281.245 330.487 284.921 332.007 288.844L355.966 345.769C357.45 349.493 359.144 353.039 361.031 356.373C362.561 358.937 364.314 361.193 365.932 363.67C369.757 369.454 372.763 376.308 376.44 382.324C381.551 390.711 387.868 397.401 394.13 404.023C395.423 405.392 396.838 406.809 398.429 406.915C400.535 407.07 402.356 404.987 403.934 402.992C406.5 399.763 411.713 395.126 413.121 390.633C414.36 386.652 412.173 382.632 410.853 379.123C406.762 368.561 401.887 358.656 396.31 349.576V349.576Z" fill="#FBBEBE"/>
<path d="M416.235 528.245L356.332 529.209L347.93 529.334L331.431 529.595H330.673L316.591 529.816C317.827 524.004 319.422 518.359 321.357 512.946C322.598 509.559 324.046 506.333 325.683 503.306C328.703 503.692 331.715 504.039 334.735 504.386C341.731 505.163 348.727 505.874 355.723 506.516C373.434 508.174 391.111 509.601 408.883 511.857C410.081 512.011 411.361 512.214 412.268 513.322C412.807 514.084 413.228 514.996 413.507 516.002C414.751 519.916 415.667 524.025 416.235 528.245V528.245Z" fill="#3F3D56"/>
<path d="M374.625 294.898C390.061 287.9 397.455 283.957 411.185 271.647C408.185 272.36 412.539 267.193 409.539 266.605C406.54 266.017 403.521 263.906 401.991 260.165C400.995 257.736 400.704 254.873 400.44 252.087L398.978 236.827C399.154 238.639 371.023 238.87 370.82 250.159C370.712 256.059 373.657 262.797 374.422 268.639C375.552 277.31 375.621 286.194 374.625 294.898V294.898Z" fill="#FBBEBE"/>
<path opacity="0.1" d="M374.625 294.898C390.061 287.9 397.455 283.957 411.185 271.647C408.185 272.36 412.539 267.193 409.539 266.605C406.54 266.017 403.521 263.906 401.991 260.165C400.995 257.736 400.704 254.873 400.44 252.087L398.978 236.827C399.154 238.639 371.023 238.87 370.82 250.159C370.712 256.059 373.657 262.797 374.422 268.639C375.552 277.31 375.621 286.194 374.625 294.898V294.898Z" fill="black"/>
<path d="M437.853 432.731C437.853 435.276 437.853 437.812 437.765 440.347C437.426 451.24 436.208 462.095 435.456 472.959C434.183 491.275 434.237 509.591 434.474 527.956L416.235 528.235L356.332 529.199L347.93 529.325L331.431 529.585C331.275 529.064 331.106 528.553 330.923 528.062C330.926 528.039 330.926 528.017 330.923 527.994C328.743 521.969 324.783 517.776 321.384 512.975C319.744 510.786 318.325 508.285 317.166 505.543C324.613 487.284 331.458 468.274 336.36 448.329C337.037 445.678 337.619 442.998 338.391 440.376C338.879 438.579 339.456 436.833 340.117 435.151C341.316 432.201 342.825 429.483 343.706 426.292C344.362 423.463 344.713 420.508 344.748 417.529C344.775 416.931 344.796 416.334 344.809 415.736C344.89 413.165 344.924 410.624 344.911 408.111C344.911 407.908 344.911 407.716 344.911 407.523C344.911 404.47 344.834 401.424 344.68 398.384C344.349 391.549 343.712 384.686 344.301 377.889C345.412 365.087 350.72 354.011 354.511 342.221C354.876 341.103 355.229 339.994 355.553 338.866C356.061 337.131 356.528 335.358 356.975 333.574C359.528 323.298 361.417 312.443 366.088 304.085C366.481 303.372 366.914 302.668 367.354 301.984C369.317 298.995 371.714 296.383 372.872 292.643C374.03 288.902 374.368 284.15 371.579 283.195C372.883 281.871 374.124 280.631 375.302 279.474C384.422 270.548 390.265 266.393 402.383 262.595C402.647 262.508 402.911 262.44 403.175 262.373C403.945 262.131 404.742 262.131 405.511 262.373C406.313 262.734 407.061 263.302 407.718 264.05C415.05 271.377 421.936 277.026 424.982 289.018C426.045 293.192 429.417 299.901 429.925 304.278C431.13 314.622 434.264 323.953 436.39 333.613C437.757 339.332 438.463 345.329 438.482 351.37C438.32 368.288 436.011 385.11 436.35 402.009C436.39 403.84 436.458 405.672 436.546 407.494C436.546 407.687 436.546 407.889 436.546 408.082C436.668 410.627 436.837 413.172 437 415.707C437.386 421.376 437.805 427.025 437.853 432.731Z" fill="#565171"/>
<path d="M382.404 390.498C382.404 390.614 382.404 390.749 382.404 390.865C382.249 394.422 382.1 397.989 381.876 401.556C381.876 402.173 381.802 402.799 381.761 403.435C381.666 404.785 381.572 406.144 381.457 407.494C381.457 407.687 381.457 407.879 381.409 408.082C381.192 410.636 380.928 413.181 380.59 415.707C380.251 418.233 379.832 420.894 379.324 423.419C378.166 429.136 376.562 434.659 375.262 440.318C374.828 442.246 374.422 444.174 374.084 446.102C373.515 449.38 373.136 452.706 372.466 455.935C371.527 460.014 370.354 463.977 368.959 467.783L355.743 506.449C353.346 513.454 350.95 520.456 348.553 527.454C348.357 528.042 348.154 528.631 347.951 529.228L331.451 529.488H330.693C330.781 528.968 330.862 528.467 330.944 527.956C332.221 520.07 333.496 512.188 334.769 504.309C336.042 496.43 337.292 488.663 338.52 481.009C339.422 475.328 340.341 469.65 341.275 463.975C342.277 457.728 343.286 451.475 344.301 445.215C344.565 443.586 344.829 441.967 345.087 440.337C346.332 432.731 347.619 425.135 349.149 417.645C349.277 416.999 349.42 416.343 349.548 415.717C350.103 413.153 350.679 410.608 351.302 408.092C351.342 407.889 351.39 407.687 351.437 407.503C352.937 401.306 354.705 395.247 356.732 389.361C356.772 389.216 356.82 389.101 356.867 388.956C356.914 388.811 356.867 388.956 356.867 388.956C357.429 387.337 358.025 385.736 358.634 384.136C359.988 380.656 361.139 375.846 364.165 375.152C366.873 374.535 370.861 376.694 374.063 378.275C374.937 378.709 375.736 379.085 376.447 379.364C378.478 380.164 380.698 381.196 381.754 383.789C382.587 385.756 382.506 388.214 382.404 390.498Z" fill="#FBBEBE"/>
<path opacity="0.1" d="M366.846 310.467C363.461 315.374 361.504 321.958 360.029 328.532C355.76 347.565 354.62 367.741 356.698 387.5C356.928 389.631 357.287 391.983 358.539 393.207C359.947 394.586 361.985 393.853 363.278 392.195C364.571 390.537 365.194 388.175 365.824 385.91C366.927 389.64 368.092 393.487 370.157 396.273C374.442 402.057 381.314 401.748 386.263 406.347C393.1 386.401 399.118 365.908 404.286 344.969C405.187 341.787 405.746 338.43 405.944 335.01C405.962 331.931 405.551 328.877 404.733 326.026C402.024 315.991 395.715 308.279 388.484 305.3C381.544 302.437 372.181 302.793 366.846 310.467Z" fill="black"/>
<path d="M366.04 308.115C362.655 313.022 360.699 319.615 359.216 326.18C354.944 345.222 353.806 365.409 355.892 385.177C356.115 387.308 356.481 389.66 357.726 390.874C359.135 392.263 361.173 391.52 362.432 389.91C363.691 388.301 364.355 385.9 364.977 383.625C366.088 387.356 367.245 391.202 369.31 393.998C373.596 399.782 380.468 399.473 385.424 404.062C392.258 384.116 398.273 363.622 403.439 342.684C404.347 339.508 404.906 336.153 405.098 332.735C405.119 329.652 404.707 326.594 403.886 323.741C401.178 313.706 394.868 306.004 387.638 303.015C380.718 300.094 371.355 300.441 366.04 308.115Z" fill="#565171"/>
<path d="M379.628 261.978C395.557 261.978 408.47 243.591 408.47 220.911C408.47 198.231 395.557 179.844 379.628 179.844C363.7 179.844 350.787 198.231 350.787 220.911C350.787 243.591 363.7 261.978 379.628 261.978Z" fill="#FBBEBE"/>
<path d="M350.828 202.412C352.667 199.433 355.17 197.445 357.916 196.782C357.672 200.956 360.157 204.494 362.831 206.268C365.506 208.041 368.512 208.591 371.145 210.442C375.844 213.739 379.412 220.998 384.645 221.268C386.46 221.354 388.707 220.786 389.736 222.887C390.123 223.826 390.328 224.893 390.332 225.982L390.833 233.771C392.282 234.976 394.049 233.568 395.681 233.028C396.88 232.633 398.132 232.726 399.296 233.294C400.46 233.863 401.489 234.886 402.265 236.246C403.041 237.606 403.533 239.249 403.686 240.987C403.838 242.726 403.645 244.491 403.128 246.081C405.248 246.512 407.409 246.21 409.429 245.2C411.449 244.19 413.269 242.502 414.734 240.279C416.199 238.055 417.267 235.362 417.846 232.427C418.426 229.492 418.5 226.402 418.063 223.417C417.727 221.855 417.551 220.231 417.542 218.597C417.752 214.876 420.25 212.418 421.685 209.295C423.669 204.957 423.52 199.192 422.193 194.372C420.866 189.552 418.524 185.474 416.215 181.483L408.016 167.293C404.232 160.757 399.729 153.681 393.799 153.248C389.594 152.949 385.64 156.14 381.45 156.699C375.356 157.518 368.959 152.843 363.299 156.111C359.236 158.453 356.826 164.208 354.673 169.607C352.872 174.109 351.051 178.697 350.3 183.758C349.074 191.991 350.807 200.58 350.144 208.938L350.828 202.412Z" fill="#3F3D56"/>
<path d="M18.1984 467.513C19.5524 466.25 20.9065 465.064 22.1996 463.907C22.8089 463.367 23.4115 462.808 24.0072 462.22C26.9017 459.435 29.606 456.269 32.0842 452.763C32.2602 452.532 32.4362 452.272 32.6122 452.021L32.7341 451.848C34.0594 450.078 35.1549 447.99 35.9703 445.678C37.04 442.285 37.0129 438.429 36.9452 434.717C36.7963 426.845 36.5706 418.972 36.2682 411.099C36.1531 408.063 36.0177 405.026 35.8755 401.989C35.8078 400.524 35.7333 399.097 35.6588 397.613" stroke="#3F3D56" stroke-width="4" stroke-miterlimit="10"/>
<path d="M45.4759 396.89C45.404 394.624 44.932 392.42 44.1037 390.482C43.2753 388.545 42.1174 386.936 40.7368 385.804L38.6109 391.8L38.6786 384.541C36.7528 383.726 34.695 383.804 32.8022 384.763C30.9094 385.722 29.2796 387.513 28.148 389.876C27.0163 392.24 26.4413 395.054 26.5061 397.913C26.5708 400.772 27.2719 403.528 28.5081 405.783C29.7444 408.038 31.4518 409.675 33.384 410.458C35.3162 411.242 37.3733 411.131 39.2583 410.141C41.1432 409.152 42.7586 407.335 43.8713 404.953C44.984 402.571 45.5364 399.748 45.4489 396.89H45.4759Z" fill="#6C63FF"/>
<path d="M28.9903 477.567L24.5355 482.725C22.4592 478.226 20.5275 473.615 18.7401 468.891C19.036 468.825 19.3344 468.783 19.6338 468.766C21.6481 468.625 23.6415 469.402 25.3242 470.985C27.0069 472.568 28.2912 474.874 28.9903 477.567V477.567Z" fill="#6C63FF"/>
<path d="M29.5588 482.291C29.5564 484.438 29.1944 486.553 28.5027 488.46C28.3343 488.934 28.1443 489.391 27.934 489.829L27.3247 488.615C26.5325 487.024 25.754 485.424 24.9957 483.795L29.5588 482.291Z" fill="#6C63FF"/>
<path d="M23.8381 462.201C21.4988 462.388 19.1937 461.335 17.3676 459.245C15.5414 457.155 14.3236 454.176 13.9492 450.883C13.5748 447.59 14.0703 444.216 15.3401 441.412C16.6099 438.608 18.564 436.574 20.8253 435.701L20.7712 441.273L22.9241 435.209C24.1713 435.122 25.4183 435.387 26.5934 435.989C27.7685 436.59 28.8485 437.516 29.7714 438.714C30.6944 439.912 31.442 441.357 31.9713 442.968C32.5007 444.578 32.8014 446.321 32.8561 448.098C32.9117 449.659 32.7742 451.222 32.4498 452.715C31.8688 455.361 30.7314 457.69 29.1914 459.386C27.6513 461.082 25.7828 462.065 23.8381 462.201V462.201Z" fill="#6C63FF"/>
<path d="M46.9042 440.337C45.4447 440.416 43.9921 440.014 42.6599 439.162C41.3276 438.309 40.1517 437.03 39.2239 435.424C38.2962 433.818 37.6417 431.928 37.3115 429.902C36.9813 427.876 36.9844 425.769 37.3206 423.745C37.6567 421.721 38.3168 419.836 39.2492 418.235C40.1817 416.634 41.3614 415.362 42.6961 414.518C44.0309 413.673 45.4846 413.279 46.9439 413.367C48.4032 413.455 49.8285 414.021 51.1085 415.023L49.4295 421.568L52.8823 416.854C54.7327 419.267 55.8356 422.627 55.9493 426.196C55.9943 427.446 55.9146 428.698 55.7123 429.917C55.2433 432.784 54.1287 435.354 52.5385 437.235C50.9483 439.117 48.9697 440.206 46.9042 440.337V440.337Z" fill="#6C63FF"/>
<path opacity="0.1" d="M44.1962 400.495C42.0026 400.842 39.87 401.816 37.6697 402.009C35.4693 402.201 33.0524 401.45 31.6577 399.011C30.913 397.7 30.5338 396.041 29.9042 394.615C29.3029 393.28 28.4797 392.178 27.5075 391.405C26.9329 393.111 26.6168 394.971 26.5799 396.864C26.543 398.756 26.7859 400.638 27.2931 402.387C27.8003 404.137 28.5602 405.715 29.5236 407.02C30.4871 408.324 31.6324 409.325 32.8852 409.958C34.1381 410.591 35.4704 410.841 36.7957 410.693C38.121 410.545 39.4096 410.002 40.5778 409.099C41.746 408.195 42.7677 406.952 43.5766 405.45C44.3854 403.948 44.9633 402.22 45.2727 400.38C44.9139 400.408 44.555 400.437 44.1962 400.495Z" fill="black"/>
<path opacity="0.1" d="M46.9042 440.337C45.2654 440.456 43.6332 439.966 42.1671 438.917C40.7011 437.868 39.4514 436.295 38.5404 434.351C37.6295 432.408 37.0884 430.162 36.9702 427.831C36.8519 425.501 37.1606 423.167 37.8659 421.057C38.6216 421.78 39.2703 422.707 39.7751 423.785C40.4521 425.241 40.8651 426.918 41.6572 428.258C43.1399 430.736 45.6652 431.546 47.9603 431.391C50.2555 431.237 52.4693 430.321 54.7306 430.023C55.0488 430.023 55.367 429.945 55.692 429.936C55.2213 432.795 54.1087 435.357 52.5228 437.234C50.9369 439.112 48.9643 440.201 46.9042 440.337V440.337Z" fill="black"/>
<path opacity="0.1" d="M23.838 462.201C22.2145 462.318 20.5972 461.839 19.1414 460.809C17.6856 459.779 16.4403 458.233 15.5251 456.32C14.61 454.407 14.0557 452.191 13.9157 449.885C13.7756 447.579 14.0544 445.261 14.7253 443.152C15.5152 443.883 16.2037 444.814 16.7563 445.9C17.4943 447.384 17.9547 449.091 18.7874 450.46C20.392 453.005 23.0865 453.901 25.5103 453.814C27.934 453.727 30.1344 452.918 32.4701 452.667C31.8936 455.327 30.7557 457.669 29.2111 459.375C27.6666 461.08 25.7905 462.067 23.838 462.201V462.201Z" fill="black"/>
<path d="M28.5298 488.461C28.3614 488.934 28.1714 489.391 27.9611 489.829L27.3518 488.615L28.5298 488.461Z" fill="#6C63FF"/>
</svg>
